<svg xmlns="http://www.w3.org/2000/svg" width="142" height="75.202" viewBox="0 0 142 75.202">
  <g id="images" transform="translate(-4.5 102.702)">
    <path id="Path_1" data-name="Path 1" d="M60.2-94.2,44.9-85.5l.5,3.3c.7,4.9-.1,6.2-5.8,8.8-6.7,3.1-9.2,3-12.5-.5-2.6-2.8-3-2.8-10.1-2.4-11.2.6-12,.9-12,4.1a41.754,41.754,0,0,0,1.8,8.7l1.8,5.9L15-56.5c11.3,1.9,16.7,5.8,25.5,18C45.2-31.9,51-28,55.9-28H59V-61H74.5c17.3,0,17.453-.116,20.153,5.084,1.537,4.706,2.261,3.137,0,8.387A11.466,11.466,0,0,1,90.458-44.5a17.128,17.128,0,0,1-4.706.531h2.715l4.4,1.026,1.782.905,1.386.739,1.169,1.2.627,1.075.4,1.291.19.763.189.685.273.714.191.9-.191,1.242-.653,1.68-1.024,1.175-1.169.91-2.448.756H74.5l.89.909H96.237c11.1-.5,9.263-2.2,16.463-12.1,7.8-10.9,14.2-15.1,25.2-16.6l5.5-.8,1.8-6a41.754,41.754,0,0,0,1.8-8.7c0-3.2-.7-3.4-11.9-4.2-7.2-.5-7.5-.4-10.1,2.4-3.4,3.6-5.9,3.7-12.6.6-5.7-2.6-6.5-3.9-5.8-8.8l.5-3.3L92-94c-8.3-4.7-15.4-8.6-15.8-8.7S68.6-99,60.2-94.2ZM74-81v17H65.5c-7.3,0-8.6.3-9.5,1.9-.5,1.1-1,8.4-1,16.5,0,8-.2,14.6-.5,14.6-2.5,0-7.4-4.3-11.9-10.3C33.5-53.6,26.9-58.2,16.3-59.6c-5-.6-5.3-.8-6.3-4.3-2.3-8.7-2.4-8.6,6.3-8.9,4.7-.2,7.7.1,7.7.7,0,1.4,5.4,4.1,8.2,4.1a21.515,21.515,0,0,0,13.3-5.2C48.3-75.6,49-76.9,49-80v-3.8l12.3-7.1c6.7-3.9,12.3-7,12.5-7.1C73.9-98,74-90.4,74-81Zm20.3-7.8c8.6,4.9,8.7,5,8.7,8.8,0,3.1.6,4.4,3.5,6.8A21.515,21.515,0,0,0,119.8-68c2.8,0,8.2-2.7,8.2-4.1,0-.6,3-.9,7.8-.7,8.6.3,8.5.2,6.2,8.9-1,3.5-1.3,3.7-6.3,4.3-10.6,1.4-17.9,6.5-26.3,18.3-3.631,5.138-4.144,7.858-6.107,9.409-.53.443-.9.868-3.275,1.211-1.533.115-1.183.947-1.787.737-.719.02.526.86,1.4-.632a2.571,2.571,0,0,0,1.864-1.775,5.39,5.39,0,0,0,.325-1.381,20.841,20.841,0,0,0-.325-3.058,15.134,15.134,0,0,0-.956-2.408,12.089,12.089,0,0,0-2.308-2.842c-1.515-1-.945-.876-4.154-1.931,2.292-1.577,1.984-1.058,1.96-1.207.471-.552,2.233-1.263,2.573-1.87.471-1.1.949-.777,1.407-2.956-.172-1.262.12-2.5,0-3.258a29.011,29.011,0,0,0-1.6-3.861C96.022-62.022,93.1-64,84.8-64H78V-98.2L81.8-96C83.8-94.8,89.4-91.5,94.3-88.8Z" transform="translate(-0.5)" fill="#337ab7"/>
    <path id="Path_2" data-name="Path 2" d="M67-49.5c0,2.2.4,2.5,3.5,2.5,3.4,0,3.5.1,3.5,4s-.1,4-3.5,4H67v11h8.5l-.3-12-.3-12h-4C67.4-52,67-51.7,67-49.5Z" fill="#337ab7"/>
    <path id="Path_3" data-name="Path 3" d="M83-49.5c0,2.2.4,2.5,3.5,2.5s3.5-.3,3.5-2.5S89.6-52,86.5-52,83-51.7,83-49.5Z" transform="translate(-1 -1)" fill="#337ab7"/>
    <path id="Path_4" data-name="Path 4" d="M13-47.3c0,1,1.3,5.8,2.9,10.8l2.9,9,7.9-.4c4.3-.1,8.2-.6,8.7-1.1,1.1-1.1-6.6-12.3-10.3-14.9C22.7-45.6,14.9-49,13.4-49,13.2-49,13-48.2,13-47.3Z" fill="#337ab7"/>
    <path id="Path_5" data-name="Path 5" d="M133.6-47.4a31.307,31.307,0,0,0-7,3.8c-4.1,3.1-11.2,13.4-10,14.5.5.5,4.4,1.1,8.7,1.3l7.7.3,3-9.2c3-9.3,3.6-12.4,2.3-12.2A27.367,27.367,0,0,0,133.6-47.4Z" fill="#337ab7"/>
    <path id="Path_6" data-name="Path 6" d="M83-49.5c0,2.2.4,2.5,3.5,2.5s5.467-.172,4.845-2.5S89.6-52,86.5-52,83-51.7,83-49.5Z" transform="translate(0 13.796)" fill="#337ab7"/>
  </g>
</svg>
